<?xml version="1.0" encoding="UTF-8" standalone="no"?>
<!DOCTYPE svg PUBLIC "-//W3C//DTD SVG 1.1//EN" "http://www.w3.org/Graphics/SVG/1.1/DTD/svg11.dtd">
<svg xmlns="http://www.w3.org/2000/svg" version="1.1" viewBox="0.00 0.00 76.00 78.00">
<g stroke-width="2.00" fill="none" stroke-linecap="butt">
<path stroke="#888e91" vector-effect="non-scaling-stroke" d="
  M 59.02 40.00
  A 23.03 23.03 0.0 0 0 35.99 16.97
  A 23.03 23.03 0.0 0 0 12.96 40.00
  A 23.03 23.03 0.0 0 0 35.99 63.03
  A 23.03 23.03 0.0 0 0 59.02 40.00"
/>
<path stroke="#888e91" vector-effect="non-scaling-stroke" d="
  M 19.37 47.08
  L 52.65 47.02
  A 3.32 3.32 0.0 0 0 55.97 43.70
  L 55.96 40.19
  A 20.19 19.93 89.9 0 0 36.00 20.03
  L 35.94 20.03
  A 20.19 19.93 89.9 0 0 16.04 40.25
  L 16.05 43.76
  A 3.32 3.32 0.0 0 0 19.37 47.08"
/>
<path stroke="#888e91" vector-effect="non-scaling-stroke" d="
  M 35.96 60.01
  C 42.43 60.02 49.62 56.30 52.96 50.51
  A 0.28 0.28 0.0 0 0 52.74 50.10
  Q 51.65 50.01 35.98 49.99
  Q 20.31 49.96 19.21 50.03
  A 0.28 0.28 0.0 0 0 18.99 50.45
  C 22.30 56.25 29.48 59.99 35.96 60.01"
/>
<path stroke="#888e91" vector-effect="non-scaling-stroke" d="
  M 38.08 25.02
  A 2.09 2.09 0.0 0 0 35.99 22.93
  A 2.09 2.09 0.0 0 0 33.90 25.02
  A 2.09 2.09 0.0 0 0 35.99 27.11
  A 2.09 2.09 0.0 0 0 38.08 25.02"
/>
<path stroke="#888e91" vector-effect="non-scaling-stroke" d="
  M 28.08 30.02
  A 2.09 2.09 0.0 0 0 25.99 27.93
  A 2.09 2.09 0.0 0 0 23.90 30.02
  A 2.09 2.09 0.0 0 0 25.99 32.11
  A 2.09 2.09 0.0 0 0 28.08 30.02"
/>
<path stroke="#888e91" vector-effect="non-scaling-stroke" d="
  M 48.07 30.02
  A 2.08 2.08 0.0 0 0 45.99 27.94
  A 2.08 2.08 0.0 0 0 43.91 30.02
  A 2.08 2.08 0.0 0 0 45.99 32.10
  A 2.08 2.08 0.0 0 0 48.07 30.02"
/>
<path stroke="#888e91" vector-effect="non-scaling-stroke" d="
  M 41.7364 36.2923
  A 1.41 1.41 0.0 0 0 41.7330 34.2982
  L 41.6905 34.2559
  A 1.41 1.41 0.0 0 0 39.6964 34.2594
  L 35.2636 38.7077
  A 1.41 1.41 0.0 0 0 35.2670 40.7018
  L 35.3095 40.7441
  A 1.41 1.41 0.0 0 0 37.3036 40.7406
  L 41.7364 36.2923"
/>
<path stroke="#888e91" vector-effect="non-scaling-stroke" d="
  M 23.08 40.01
  A 2.09 2.09 0.0 0 0 20.99 37.92
  A 2.09 2.09 0.0 0 0 18.90 40.01
  A 2.09 2.09 0.0 0 0 20.99 42.10
  A 2.09 2.09 0.0 0 0 23.08 40.01"
/>
<path stroke="#888e91" vector-effect="non-scaling-stroke" d="
  M 53.05 40.01
  A 2.07 2.07 0.0 0 0 50.98 37.94
  A 2.07 2.07 0.0 0 0 48.91 40.01
  A 2.07 2.07 0.0 0 0 50.98 42.08
  A 2.07 2.07 0.0 0 0 53.05 40.01"
/>
</g>
<path fill="#f2f2f2" d="
  M 76.00 0.00
  L 76.00 78.00
  L 0.00 78.00
  L 0.00 0.00
  L 76.00 0.00
  Z
  M 59.02 40.00
  A 23.03 23.03 0.0 0 0 35.99 16.97
  A 23.03 23.03 0.0 0 0 12.96 40.00
  A 23.03 23.03 0.0 0 0 35.99 63.03
  A 23.03 23.03 0.0 0 0 59.02 40.00
  Z"
/>
<path fill="#1d292f" d="
  M 59.02 40.00
  A 23.03 23.03 0.0 0 1 35.99 63.03
  A 23.03 23.03 0.0 0 1 12.96 40.00
  A 23.03 23.03 0.0 0 1 35.99 16.97
  A 23.03 23.03 0.0 0 1 59.02 40.00
  Z
  M 19.37 47.08
  L 52.65 47.02
  A 3.32 3.32 0.0 0 0 55.97 43.70
  L 55.96 40.19
  A 20.19 19.93 89.9 0 0 36.00 20.03
  L 35.94 20.03
  A 20.19 19.93 89.9 0 0 16.04 40.25
  L 16.05 43.76
  A 3.32 3.32 0.0 0 0 19.37 47.08
  Z
  M 35.96 60.01
  C 42.43 60.02 49.62 56.30 52.96 50.51
  A 0.28 0.28 0.0 0 0 52.74 50.10
  Q 51.65 50.01 35.98 49.99
  Q 20.31 49.96 19.21 50.03
  A 0.28 0.28 0.0 0 0 18.99 50.45
  C 22.30 56.25 29.48 59.99 35.96 60.01
  Z"
/>
<path fill="#f2f2f2" d="
  M 19.37 47.08
  A 3.32 3.32 0.0 0 1 16.05 43.76
  L 16.04 40.25
  A 20.19 19.93 89.9 0 1 35.94 20.03
  L 36.00 20.03
  A 20.19 19.93 89.9 0 1 55.96 40.19
  L 55.97 43.70
  A 3.32 3.32 0.0 0 1 52.65 47.02
  L 19.37 47.08
  Z
  M 38.08 25.02
  A 2.09 2.09 0.0 0 0 35.99 22.93
  A 2.09 2.09 0.0 0 0 33.90 25.02
  A 2.09 2.09 0.0 0 0 35.99 27.11
  A 2.09 2.09 0.0 0 0 38.08 25.02
  Z
  M 28.08 30.02
  A 2.09 2.09 0.0 0 0 25.99 27.93
  A 2.09 2.09 0.0 0 0 23.90 30.02
  A 2.09 2.09 0.0 0 0 25.99 32.11
  A 2.09 2.09 0.0 0 0 28.08 30.02
  Z
  M 48.07 30.02
  A 2.08 2.08 0.0 0 0 45.99 27.94
  A 2.08 2.08 0.0 0 0 43.91 30.02
  A 2.08 2.08 0.0 0 0 45.99 32.10
  A 2.08 2.08 0.0 0 0 48.07 30.02
  Z
  M 41.7364 36.2923
  A 1.41 1.41 0.0 0 0 41.7330 34.2982
  L 41.6905 34.2559
  A 1.41 1.41 0.0 0 0 39.6964 34.2594
  L 35.2636 38.7077
  A 1.41 1.41 0.0 0 0 35.2670 40.7018
  L 35.3095 40.7441
  A 1.41 1.41 0.0 0 0 37.3036 40.7406
  L 41.7364 36.2923
  Z
  M 23.08 40.01
  A 2.09 2.09 0.0 0 0 20.99 37.92
  A 2.09 2.09 0.0 0 0 18.90 40.01
  A 2.09 2.09 0.0 0 0 20.99 42.10
  A 2.09 2.09 0.0 0 0 23.08 40.01
  Z
  M 53.05 40.01
  A 2.07 2.07 0.0 0 0 50.98 37.94
  A 2.07 2.07 0.0 0 0 48.91 40.01
  A 2.07 2.07 0.0 0 0 50.98 42.08
  A 2.07 2.07 0.0 0 0 53.05 40.01
  Z"
/>
<circle fill="#1d292f" cx="35.99" cy="25.02" r="2.09"/>
<circle fill="#1d292f" cx="25.99" cy="30.02" r="2.09"/>
<circle fill="#1d292f" cx="45.99" cy="30.02" r="2.08"/>
<rect fill="#1d292f" x="-1.44" y="-4.55" transform="translate(38.50,37.50) rotate(44.9)" width="2.88" height="9.10" rx="1.41"/>
<circle fill="#1d292f" cx="20.99" cy="40.01" r="2.09"/>
<circle fill="#1d292f" cx="50.98" cy="40.01" r="2.07"/>
<path fill="#f2f2f2" d="
  M 35.98 49.99
  Q 51.65 50.01 52.74 50.10
  A 0.28 0.28 0.0 0 1 52.96 50.51
  C 49.62 56.30 42.43 60.02 35.96 60.01
  C 29.48 59.99 22.30 56.25 18.99 50.45
  A 0.28 0.28 0.0 0 1 19.21 50.03
  Q 20.31 49.96 35.98 49.99
  Z"
/>
</svg>
